# xmcd
#
# Track frame offsets:
#       182
#       12485
#       32360
#       42842
#       58370
#       79115
#       88760
#       109185
#       121845
#       148085
#       163250
#       181365
#       193210
#       206170
#
# Disc length: 2971 seconds
#
# Revision: 2
# Processed by: cddbd v1.5.2PL0 Copyright (c) Steve Scherf et al.
# Submitted via: FreeDbEdit v0.1
#
DISCID=ca0b990e
DTITLE=Various Artist - Chicago Blues Meeting - Snake in My Bedroom
DYEAR=1986
DGENRE=Blues
TTITLE0=Larry Dornell - For You My Love
TTITLE1=W.Dixon O.Rush - I Can't Stop
TTITLE2=Jr.Wells Mel London - When The Cat Is Gone
TTITLE3=Leroy Foster - Take a Walk With Me
TTITLE4=Morganfield  - You can't Lose What You Never Had
TTITLE5=Zetterberg  - Snake in My Bedroom
TTITLE6=John Lee Williamson - 'Bout the Break of Day
TTITLE7=Reiersrud - Doing the Dishes
TTITLE8=Zetteberg - Blues for an Unhappy Girl
TTITLE9=Zetteberg - You Got to Notify Your Lover
TTITLE10=Sunnyland Slim - Fine Body
TTITLE11=Zetteberg - Tribute to Walter Horton
TTITLE12=Eddie Taylor - Bad Boy
TTITLE13=Oden - Going Down Slow
EXTD=
EXTT0=
EXTT1=
EXTT2=
EXTT3=
EXTT4=
EXTT5=
EXTT6=
EXTT7=
EXTT8=
EXTT9=
EXTT10=
EXTT11=
EXTT12=
EXTT13=
PLAYORDER=
